Coordinates
version=1
nRows=11
nColumns=40
inDegrees=yes

Units are S.I. units (second, meters, Newtons, ...)
If the header above contains a line with 'inDegrees', this indicates whether rotational values are in degrees (yes) or radians (no).

endheader
time	pelvis_tilt	pelvis_list	pelvis_rotation	pelvis_tx	pelvis_ty	pelvis_tz	hip_flexion_r	hip_adduction_r	hip_rotation_r	knee_angle_r	knee_angle_r_beta	ankle_angle_r	subtalar_angle_r	mtp_angle_r	hip_flexion_l	hip_adduction_l	hip_rotation_l	knee_angle_l	knee_angle_l_beta	ankle_angle_l	subtalar_angle_l	mtp_angle_l	lumbar_extension	lumbar_bending	lumbar_rotation	arm_flex_r	arm_add_r	arm_rot_r	elbow_flex_r	pro_sup_r	wrist_flex_r	wrist_dev_r	arm_flex_l	arm_add_l	arm_rot_l	elbow_flex_l	pro_sup_l	wrist_flex_l	wrist_dev_l
      5.91000000	     36.13472636	      3.10107874	   -177.75945262	      0.42964288	      0.81020039	     -0.60784619	     65.06100387	     -8.65651496	    -13.43236787	     28.16443391	      0.49156210	     -0.36281001	      0.00000000	      0.00000000	     66.68678538	     -8.06826637	     -1.64599766	     28.45855734	      0.49669553	     -2.62328519	      0.00000000	      0.00000000	    -12.26641827	      9.72383914	      2.43640953	     43.26083357	    -12.16216118	     63.60947241	      0.94131709	     84.73865612	      0.00000000	      0.00000000	     32.71048801	     -4.33539559	     87.79167836	      0.60206544	      2.68181875	      0.00000000	      0.00000000
      5.91500000	     35.96817531	      3.15088636	   -177.73192948	      0.42892393	      0.81063970	     -0.60806100	     64.84383453	     -8.60942404	    -13.43443701	     28.20237340	      0.49222427	     -0.36788991	      0.00000000	      0.00000000	     66.49193711	     -8.10743202	     -1.63856689	     28.47706099	      0.49701848	     -2.62683455	      0.00000000	      0.00000000	    -11.84072958	      9.66053797	      2.38265280	     42.83470604	    -12.13912544	     63.64654487	      0.94350937	     84.74734835	      0.00000000	      0.00000000	     32.47154814	     -4.38226063	     87.78198362	      0.60275025	      2.68656421	      0.00000000	      0.00000000
      5.92000000	     35.41934148	      3.28353789	   -177.53804442	      0.42752348	      0.81169106	     -0.60792173	     64.13702323	     -8.69222946	    -13.75936213	     28.27271012	      0.49345188	      0.05530682	      0.00000000	      0.00000000	     65.83998121	     -8.06266559	     -1.52013700	     28.43963710	      0.49636531	     -2.33897409	      0.00000000	      0.00000000	    -11.82226728	      9.83248525	      2.10818241	     42.53324497	    -12.14678366	     64.94050439	      0.99440263	     84.42812388	      0.00000000	      0.00000000	     32.06479850	     -4.50150894	     87.90926223	      0.60103007	      2.73263079	      0.00000000	      0.00000000
      5.92500000	     35.26741241	      3.30652531	   -177.51819246	      0.42678100	      0.81211686	     -0.60825875	     63.93408458	     -8.64624712	    -13.75763522	     28.30312178	      0.49398266	      0.03437883	      0.00000000	      0.00000000	     65.65132795	     -8.10589633	     -1.49534616	     28.47276784	      0.49694355	     -2.35751477	      0.00000000	      0.00000000	    -11.37912754	      9.76969691	      2.06676267	     42.10610245	    -12.10993283	     64.95480793	      0.98581071	     84.43936983	      0.00000000	      0.00000000	     31.87601661	     -4.56347330	     87.88866662	      0.60327707	      2.73367917	      0.00000000	      0.00000000
      5.93000000	     35.08630889	      3.32340203	   -177.49169786	      0.42594359	      0.81266280	     -0.60844720	     63.68215021	     -8.61923501	    -13.75805866	     28.31066318	      0.49411429	      0.07187985	      0.00000000	      0.00000000	     65.41259966	     -8.13440317	     -1.49043827	     28.48791611	      0.49720793	     -2.33589817	      0.00000000	      0.00000000	    -10.97109600	      9.73809422	      1.99488144	     41.73152199	    -12.10851277	     65.02558960	      1.01160275	     84.42522227	      0.00000000	      0.00000000	     31.47769917	     -4.63476722	     87.88740586	      0.60740556	      2.74389365	      0.00000000	      0.00000000
      5.93500000	     34.92057184	      3.35200326	   -177.45871895	      0.42513387	      0.81311850	     -0.60875700	     63.46461593	     -8.57992152	    -13.73996495	     28.34374296	      0.49469164	      0.07166554	      0.00000000	      0.00000000	     65.20432212	     -8.17400584	     -1.48110882	     28.51556602	      0.49769052	     -2.34062802	      0.00000000	      0.00000000	    -10.54226836	      9.68421318	      1.94566273	     41.30845644	    -12.07666445	     65.04852747	      1.00435319	     84.43665654	      0.00000000	      0.00000000	     31.29097310	     -4.70468989	     87.87340158	      0.60838024	      2.74606687	      0.00000000	      0.00000000
      5.94000000	     34.74271828	      3.36865068	   -177.42922503	      0.42424451	      0.81360270	     -0.60897489	     63.23072162	     -8.55049311	    -13.71709694	     28.37855663	      0.49529925	      0.08726568	      0.00000000	      0.00000000	     64.97558726	     -8.20619466	     -1.48272621	     28.54540449	      0.49821129	     -2.33603653	      0.00000000	      0.00000000	    -10.11167333	      9.63838191	      1.89117084	     40.89223762	    -12.06263045	     65.07404804	      1.00439226	     84.44676634	      0.00000000	      0.00000000	     31.00247747	     -4.77682692	     87.85922057	      0.61515854	      2.75159005	      0.00000000	      0.00000000
      5.94500000	     34.54622886	      3.38305517	   -177.40706581	      0.42337162	      0.81407932	     -0.60921518	     62.97994762	     -8.50873787	    -13.69372447	     28.41673225	      0.49596554	      0.12161154	      0.00000000	      0.00000000	     64.72963907	     -8.23648220	     -1.47195866	     28.57759389	      0.49877311	     -2.31749620	      0.00000000	      0.00000000	     -9.70245038	      9.58636543	      1.82347308	     40.48952814	    -12.03858101	     65.10785400	      1.01531328	     84.45629109	      0.00000000	      0.00000000	     30.68599200	     -4.85480612	     87.84910682	      0.61911811	      2.75889753	      0.00000000	      0.00000000
      5.95000000	     34.35039897	      3.40024437	   -177.37813807	      0.42238153	      0.81458251	     -0.60947781	     62.71881061	     -8.47567713	    -13.66615409	     28.45510141	      0.49663521	      0.16574282	      0.00000000	      0.00000000	     64.47678772	     -8.27810734	     -1.47725135	     28.60558040	      0.49926156	     -2.29345046	      0.00000000	      0.00000000	     -9.27626565	      9.53208605	      1.73434800	     40.06694877	    -11.99634024	     65.14593010	      1.02747144	     84.46850971	      0.00000000	      0.00000000	     30.36729338	     -4.94057338	     87.83879814	      0.62282738	      2.76681328	      0.00000000	      0.00000000
      5.95500000	     33.55390484	      3.32286117	   -177.18282211	      0.42041114	      0.81602775	     -0.60916768	     61.70267073	     -8.62586218	    -13.75780758	     28.47214908	      0.49693275	      1.02923602	      0.00000000	      0.00000000	     63.40707822	     -8.14286999	     -1.64372070	     28.46555741	      0.49681770	     -1.73864529	      0.00000000	      0.00000000	     -9.51484355	      9.47796003	      1.35833509	     39.79979095	    -11.90714586	     66.03099877	      1.04563024	     84.34180724	      0.00000000	      0.00000000	     29.92643849	     -5.15172850	     87.97817620	      0.62972469	      2.85478093	      0.00000000	      0.00000000
      5.96000000	     33.36092265	      3.31150217	   -177.22983552	      0.41930721	      0.81653983	     -0.60956182	     61.46021667	     -8.55075123	    -13.74074108	     28.52586694	      0.49787030	      0.99853675	      0.00000000	      0.00000000	     63.17182535	     -8.17923961	     -1.47943196	     28.55899323	      0.49844846	     -1.76154325	      0.00000000	      0.00000000	     -9.08433959	      9.36650005	      1.33972326	     39.35351463	    -11.85511188	     66.05695569	      1.05138179	     84.35295752	      0.00000000	      0.00000000	     29.62852582	     -5.22727941	     87.93800156	      0.62996754	      2.85689232	      0.00000000	      0.00000000
